<?xml version="1.0" standalone="no"?>
<!DOCTYPE svg PUBLIC "-//W3C//DTD SVG 20010904//EN"
 "http://www.w3.org/TR/2001/REC-SVG-20010904/DTD/svg10.dtd">
<svg version="1.0" xmlns="http://www.w3.org/2000/svg"
 width="145.000000pt" height="144.000000pt" viewBox="0 0 145.000000 144.000000"
 preserveAspectRatio="xMidYMid meet">
<metadata>
Created by potrace 1.16, written by Peter Selinger 2001-2019
</metadata>
<g transform="translate(0.000000,144.000000) scale(0.100000,-0.100000)"
fill="#1a5b1b" stroke="none">
<path d="M544 1296 c-107 -34 -172 -74 -249 -151 -120 -119 -175 -254 -175
-425 0 -171 55 -306 175 -425 76 -76 152 -121 259 -154 94 -29 247 -29 342 0
206 62 367 227 418 425 21 80 21 228 0 308 -51 198 -212 363 -418 425 -98 30
-254 29 -352 -3z m315 -276 c69 -22 132 -44 140 -49 11 -7 -15 -71 -129 -320
-79 -171 -147 -311 -150 -311 -11 0 -293 620 -286 628 10 9 257 90 280 91 10
1 75 -17 145 -39z"/>
<path d="M600 983 c-58 -20 -100 -38 -95 -40 6 -2 57 -23 115 -46 l105 -42 5
-199 5 -199 108 234 c59 129 107 239 107 244 0 10 -213 86 -235 84 -5 0 -57
-17 -115 -36z"/>
</g>
</svg>
